<svg width="671" height="542" viewBox="0 0 671 542" fill="none" xmlns="http://www.w3.org/2000/svg">
<mask id="mask0_19_7" style="mask-type:luminance" maskUnits="userSpaceOnUse" x="172" y="43" width="499" height="499">
<path d="M172.855 43.605H670.465V541.131H172.855V43.605Z" fill="white"/>
</mask>
<g mask="url(#mask0_19_7)">
<path d="M635.892 644.765L656.106 473.808V463.498H280.137L283.169 479.655L311.131 644.765L318.206 644.562L299.003 478.813H645.157L629.239 644.765H635.892Z" fill="white"/>
<path d="M620.733 478.813L608.268 644.765H612.816L632.019 478.813H620.733Z" fill="white"/>
<path d="M336.06 478.813L348.526 644.765H343.978L324.775 478.813H336.06Z" fill="white"/>
</g>
<mask id="mask1_19_7" style="mask-type:luminance" maskUnits="userSpaceOnUse" x="172" y="43" width="499" height="499">
<path d="M172.855 43.605H670.465V541.131H172.855V43.605Z" fill="white"/>
</mask>
<g mask="url(#mask1_19_7)">
<path d="M600.679 417.749C600.679 417.749 596.603 398.522 593.307 393.358C590.011 388.194 575.069 390.062 572.322 395.226C569.575 400.39 569.795 411.706 569.795 411.706C569.795 411.706 575.508 403.479 581.331 404.022C587.154 404.565 596.822 417.749 596.822 417.749H600.679Z" fill="#00C4CF"/>
<path d="M602.976 422.583C602.976 422.583 614.677 399.511 613.688 386.327C612.699 373.143 594.736 360.453 594.736 360.453C594.736 360.453 589.462 373.472 591.11 387.975C592.758 402.477 602.976 422.583 602.976 422.583Z" fill="#FFBD39"/>
<path d="M605.063 417.749C605.063 417.749 608.029 400.719 618.082 393.468C628.135 386.217 643.626 406.982 643.626 406.982C643.626 406.982 625.498 401.708 619.73 403.851C613.962 405.993 606.711 417.749 606.711 417.749H605.063Z" fill="#00C4CF"/>
<path d="M575.358 417.749H624.524V427.417H575.358V417.749Z" fill="#FFCD42"/>
<path d="M622.299 427.417L617.685 463.521H582.747L577.583 427.417H622.299Z" fill="#FF9A36"/>
<path d="M596.823 417.749C596.823 417.749 593.252 410.278 587.155 409.619C581.057 408.96 578.146 415.936 578.146 415.936C578.146 415.936 581.607 413.42 586.441 413.662C591.275 413.904 594.516 417.749 594.516 417.749H596.823Z" fill="#FFBD39"/>
<path d="M603.525 417.749C603.525 417.749 603.855 384.239 596.823 374.681C596.823 374.681 605.613 377.867 603.525 417.749Z" fill="#00C4CF"/>
<path d="M605.668 417.749C605.668 417.749 612.233 399.401 620.061 397.506C627.889 395.611 635.964 401.626 635.964 401.626C635.964 401.626 627.394 394.584 619.443 397.137C611.491 399.69 605.668 417.749 605.668 417.749Z" fill="#FFBD39"/>
<path d="M595.425 404.84C595.425 404.84 587.182 393.303 576.47 396.929C576.47 396.929 585.612 391.683 594.925 403.411L595.425 404.84Z" fill="#FFBD39"/>
</g>
<path opacity="0.58" d="M627.429 110.355L625.043 227.24L628.588 227.704L630.079 110.885L627.429 110.355Z" fill="white"/>
<path opacity="0.27" d="M627.429 110.355L504.713 115.656V228.83L625.043 227.24L627.429 110.355Z" fill="white"/>
<path d="M627.429 110.355L630.079 110.885L629.813 131.725L627.007 130.994L627.429 110.355Z" fill="#FEFEFC"/>
<path opacity="0.58" d="M627.429 110.355L504.713 115.656V135.802L627.007 130.994L627.429 110.355Z" fill="white"/>
<path d="M621.488 137.841L619.631 220.534L508.864 223.047V222.337L618.757 219.697L620.969 137.841H621.488Z" fill="#FEFEFC"/>
<path opacity="0.58" d="M612.45 218.895L613.47 187.217L606.753 187.679L605.896 219.078L612.45 218.895Z" fill="white"/>
<path opacity="0.58" d="M575.746 219.894L576.766 188.215L570.049 188.677L569.192 220.076L575.746 219.894Z" fill="white"/>
<path opacity="0.58" d="M589.182 219.411L590.202 194.699L583.485 195.06L582.628 219.553L589.182 219.411Z" fill="white"/>
<path opacity="0.58" d="M601.526 219.16L602.546 166.898L595.829 167.66L594.972 219.46L601.526 219.16Z" fill="white"/>
<path opacity="0.58" d="M562.244 220.108L563.264 188.429L556.548 188.891L555.69 220.29L562.244 220.108Z" fill="white"/>
<path opacity="0.58" d="M525.542 221.106L526.561 189.427L519.845 189.889L518.987 221.288L525.542 221.106Z" fill="white"/>
<path opacity="0.58" d="M538.977 220.624L539.996 195.912L533.28 196.272L532.423 220.766L538.977 220.624Z" fill="white"/>
<path opacity="0.58" d="M551.321 220.372L552.34 168.111L545.624 168.873L544.766 220.672L551.321 220.372Z" fill="white"/>
<path opacity="0.58" d="M380.753 1.95599L377.046 0L374.884 122.205H379.208L380.753 1.95599Z" fill="white"/>
<path opacity="0.27" d="M377.046 0L241.663 5.868L243.722 116.234L374.884 122.205L377.046 0Z" fill="white"/>
<path opacity="0.58" d="M377.046 0L241.663 5.868L241.929 20.138L376.771 15.572L377.046 0Z" fill="white"/>
<path d="M377.046 0L380.753 1.95599L380.567 16.405L376.768 15.751L377.046 0Z" fill="#FEFEFC"/>
<path d="M366.217 7.24518C365.504 8.90418 365.923 10.6772 367.154 11.2052C368.384 11.7342 369.959 10.8182 370.672 9.15918C371.385 7.50018 370.966 5.72718 369.735 5.19918C368.505 4.67018 366.93 5.58618 366.217 7.24518Z" fill="#FEFEFC"/>
<path d="M287.218 55.6501C293.677 36.5211 314.825 26.3881 334.455 33.0161C354.084 39.6441 364.761 60.5241 358.302 79.6521C351.843 98.7811 330.694 108.914 311.065 102.286C291.435 95.6591 280.759 74.7791 287.218 55.6501ZM314.372 92.4911C328.45 97.2451 343.617 89.9771 348.249 76.2581C352.881 62.5391 345.224 47.5651 331.147 42.8111C317.069 38.0581 301.902 45.3251 297.27 59.0441C292.637 72.7631 300.294 87.7371 314.372 92.4911Z" fill="#FFBD39"/>
<mask id="mask2_19_7" style="mask-type:luminance" maskUnits="userSpaceOnUse" x="285" y="30" width="76" height="75">
<path d="M287.218 55.6501C293.677 36.5211 314.825 26.3881 334.455 33.0161C354.084 39.6441 364.761 60.5241 358.302 79.6521C351.843 98.7811 330.694 108.914 311.065 102.286C291.435 95.6591 280.759 74.7791 287.218 55.6501ZM314.372 92.4911C328.45 97.2451 343.617 89.9771 348.249 76.2581C352.881 62.5391 345.224 47.5651 331.147 42.8111C317.069 38.0581 301.902 45.3251 297.27 59.0441C292.637 72.7631 300.294 87.7371 314.372 92.4911Z" fill="white"/>
</mask>
<g mask="url(#mask2_19_7)">
<path d="M322.054 30.0933V45.4093V66.2673H284.681L285.771 51.4153L294.378 34.6693L309.355 31.4553L322.054 30.0933Z" fill="#FFCD42"/>
</g>
<mask id="mask3_19_7" style="mask-type:luminance" maskUnits="userSpaceOnUse" x="285" y="30" width="76" height="75">
<path d="M287.218 55.6501C293.677 36.5211 314.825 26.3881 334.455 33.0161C354.084 39.6441 364.761 60.5241 358.302 79.6521C351.843 98.7811 330.694 108.914 311.065 102.286C291.435 95.6591 280.759 74.7791 287.218 55.6501ZM314.372 92.4911C328.45 97.2451 343.617 89.9771 348.249 76.2581C352.881 62.5391 345.224 47.5651 331.147 42.8111C317.069 38.0581 301.902 45.3251 297.27 59.0441C292.637 72.7631 300.294 87.7371 314.372 92.4911Z" fill="white"/>
</mask>
<g mask="url(#mask3_19_7)">
<path d="M295.937 66.2671H285.343H285.124L285.008 69.9171L287.078 85.6061L290.238 90.1281L300.371 79.1781L296.394 66.4851L295.937 66.2671Z" fill="#FEFEFC"/>
</g>
<path d="M331.919 69.197H334.51V72.519H337.142V69.197H345.165V67.317L337.958 57.895H335.054L341.844 66.899H337.06V63.953H334.511V66.899H331.92L331.919 69.197Z" fill="#FFBD39"/>
<path d="M327.804 71.84C328.723 71.248 329.448 70.385 329.977 69.25C330.506 68.115 330.77 66.768 330.77 65.208C330.77 63.648 330.506 62.301 329.977 61.166C329.448 60.031 328.723 59.168 327.804 58.576C326.885 57.984 325.84 57.688 324.67 57.688C323.5 57.688 322.452 57.984 321.526 58.576C320.6 59.168 319.872 60.032 319.343 61.166C318.814 62.301 318.549 63.649 318.549 65.208C318.549 66.768 318.814 68.115 319.343 69.25C319.873 70.385 320.6 71.249 321.526 71.84C322.452 72.432 323.5 72.728 324.67 72.728C325.84 72.727 326.885 72.432 327.804 71.84ZM322.195 69.072C321.589 68.209 321.286 66.92 321.286 65.207C321.286 63.494 321.589 62.206 322.195 61.342C322.801 60.479 323.626 60.047 324.671 60.047C325.702 60.047 326.52 60.479 327.126 61.342C327.732 62.206 328.035 63.494 328.035 65.207C328.035 66.92 327.732 68.208 327.126 69.072C326.52 69.936 325.702 70.367 324.671 70.367C323.626 70.367 322.801 69.935 322.195 69.072Z" fill="#FFBD39"/>
<path d="M315.981 64.664C316.622 63.926 316.942 62.958 316.942 61.76C316.942 60.563 316.622 59.595 315.981 58.856C315.34 58.118 314.498 57.749 313.453 57.749C312.408 57.749 311.562 58.114 310.915 58.846C310.267 59.577 309.944 60.549 309.944 61.76C309.944 62.972 310.268 63.943 310.915 64.674C311.562 65.405 312.409 65.771 313.453 65.771C314.497 65.771 315.34 65.402 315.981 64.664ZM312.126 63.64C311.813 63.194 311.656 62.568 311.656 61.76C311.656 60.952 311.812 60.326 312.126 59.88C312.44 59.434 312.882 59.211 313.453 59.211C313.996 59.211 314.431 59.438 314.759 59.89C315.086 60.343 315.25 60.966 315.25 61.76C315.25 62.554 315.086 63.177 314.759 63.63C314.432 64.083 313.997 64.309 313.453 64.309C312.882 64.309 312.44 64.086 312.126 63.64ZM304.679 57.895H302.632L312.618 72.518H314.665L304.679 57.895ZM306.392 71.558C307.033 70.82 307.353 69.852 307.353 68.654C307.353 67.456 307.033 66.489 306.392 65.75C305.751 65.012 304.909 64.643 303.864 64.643C302.819 64.643 301.974 65.012 301.326 65.75C300.678 66.488 300.354 67.456 300.354 68.654C300.354 69.852 300.678 70.82 301.326 71.558C301.974 72.296 302.82 72.665 303.864 72.665C304.908 72.665 305.751 72.296 306.392 71.558ZM302.548 70.524C302.228 70.072 302.068 69.448 302.068 68.654C302.068 67.86 302.228 67.237 302.548 66.784C302.868 66.332 303.308 66.105 303.864 66.105C304.421 66.105 304.86 66.328 305.18 66.773C305.501 67.219 305.661 67.846 305.661 68.653C305.661 69.461 305.501 70.087 305.18 70.533C304.86 70.979 304.421 71.202 303.864 71.202C303.307 71.202 302.868 70.976 302.548 70.524Z" fill="#FEFEFC"/>
<path opacity="0.47" d="M274.984 31.4551V34.7781L247.037 35.2681V32.1091L274.984 31.4551Z" fill="white"/>
<path opacity="0.47" d="M274.221 41.8892L275.638 101.569H272.369L271.061 41.8892H274.221Z" fill="white"/>
<path opacity="0.47" d="M265.091 41.8892L266.507 101.569H263.238L261.931 41.8892H265.091Z" fill="white"/>
<path opacity="0.47" d="M255.4 74.0601L256.169 101.569H252.9L252.24 74.0601H255.4Z" fill="white"/>
<path d="M326.067 308.314L319.439 300.65C319.439 300.65 323.934 296.258 324.155 291.232C324.376 286.206 324.054 283.963 324.818 281.883C325.582 279.803 334.738 271.227 334.26 269.5C333.782 267.773 329.2 267.573 327.208 268.865C325.216 270.157 318.062 280.075 316.319 280.413C314.576 280.751 303.932 266.484 301.536 261.623C299.14 256.762 292.976 248.833 290.8 246.868C288.624 244.903 286.029 245.906 285.576 246.954C285.123 248.002 295.44 263.16 297.342 266.794C299.245 270.428 300.005 273.406 298.895 273.672C297.785 273.939 288.841 265.311 286.942 265.529C285.043 265.748 283.083 267.962 282.763 269.565C282.444 271.168 284.383 274.335 284.383 274.335C284.383 274.335 282.166 273.141 281.164 273.734C280.162 274.327 278.51 276.275 278.288 277.635C278.066 278.995 282.644 284.574 282.175 284.68C281.706 284.786 275.187 278.57 273.78 279.369C272.374 280.168 270.979 282.033 272.002 284.483C273.024 286.933 292.371 307.04 297.19 309.042C302.009 311.043 305.104 310.056 305.104 310.056L317.085 324.23L326.067 308.314Z" fill="#FACEE7"/>
<path d="M289.706 268.864C289.706 268.864 292.966 273.426 295.069 276.465C297.172 279.504 298.539 283.452 296.231 284.792C293.924 286.133 291.964 285.365 290.806 283.842C289.648 282.319 284.384 274.334 284.384 274.334C284.384 274.334 290.375 284.644 291.416 287.066C292.457 289.488 289.887 291.906 287.827 291.525C285.767 291.143 282.176 284.679 282.176 284.679C282.176 284.679 285.094 291.14 287.898 292.111C290.701 293.082 293.221 290.027 292.227 287.179L291.358 285.488C291.358 285.488 293.772 287.616 296.588 285.86C299.404 284.105 298.325 281.168 297.708 279.343C297.091 277.518 289.706 268.864 289.706 268.864Z" fill="#4A4A4A"/>
<path d="M279.215 283.063C279.215 283.063 283.286 287.756 283.659 289.467C284.032 291.178 281.981 293.52 280.812 293.417C279.642 293.314 275.922 289.325 275.922 289.325C275.922 289.325 279.853 294.698 281.894 293.946C283.935 293.194 284.562 290.768 284.399 289.596C284.236 288.423 279.215 283.063 279.215 283.063Z" fill="#4A4A4A"/>
<path d="M501.457 422.068L518.557 541.131H463.793L448.207 475.376L444.195 474.062L428.914 541.131H379.028L407.371 419.552L501.457 422.068Z" fill="#4A4A4A"/>
<path d="M434.927 430.284C434.927 430.284 435.812 455.931 437.384 459.077C438.956 462.223 447.891 466.19 447.891 466.19C447.891 466.19 438.413 462.445 436.958 459.362C435.503 456.279 434.651 430.275 434.651 430.275L434.927 430.284Z" fill="#FFBD39"/>
<path d="M481.766 427.838C481.766 427.838 483.581 445.951 499.927 449.191L499.911 449.697C499.911 449.697 484.246 447.572 481.215 427.821L481.766 427.838Z" fill="#FFBD39"/>
<path d="M501.631 416.353L501.457 422.068C501.457 422.068 471.898 433.201 445.836 432.047C419.774 430.893 407.371 419.552 407.371 419.552L407.566 412.488L501.631 416.353Z" fill="#FFBD39"/>
<path d="M465.838 243.769L480.54 251.622L522.646 261.964L511.737 334.32C511.737 334.32 501.406 356.526 501.254 361.526C501.101 366.526 505.019 413.834 503.914 414.873C502.81 415.912 495.967 421.244 457.367 424.98C418.767 428.716 407.564 412.486 407.564 412.486L407.404 362.194C407.404 362.194 390.113 291.459 390.091 285.649C390.069 279.839 393.614 265.181 397.241 263.499C400.867 261.818 427.255 252.137 427.255 252.137L465.838 243.769Z" fill="#FEFEFC"/>
<path d="M430.196 237.073L433.373 251.037L425.445 256.614C425.445 256.614 425.125 263.349 436.142 264.616C451.327 266.363 470.117 251.119 470.117 251.119L466.849 249.049L460.356 215.113L430.196 237.073Z" fill="#FACEE7"/>
<path d="M460.356 215.113L430.197 237.073L431.611 243.29L432.795 248.492L463.308 230.54L460.356 215.113Z" fill="#FAAAD8"/>
<path d="M474.18 181.668C474.18 181.668 481.313 181.552 481.077 193.189C480.841 204.827 469.186 214.305 462.543 211.562C462.543 211.562 438.528 253.634 416.428 244.377C394.328 235.12 397.079 190.623 397.079 190.623C397.079 190.623 390.924 149.139 410.197 138.942C429.47 128.745 459.856 136.284 468.249 146.282C476.64 156.28 474.18 181.668 474.18 181.668Z" fill="#FACEE7"/>
<path d="M476.046 189.634C476.046 189.634 464.152 193.912 465.247 206.839C465.247 206.839 461.842 193.857 476.046 189.634Z" fill="#4A4A4A"/>
<path d="M454.727 186.905C454.683 188.337 452.181 189.423 449.138 189.33C446.095 189.237 443.663 188 443.707 186.569C443.751 185.136 446.253 184.051 449.297 184.144C452.339 184.237 454.771 185.472 454.727 186.905Z" fill="#FAAAD8"/>
<path d="M405.146 187.469C405.102 188.901 403.263 190.007 401.039 189.939C398.814 189.871 397.046 188.655 397.09 187.223C397.134 185.791 398.973 184.685 401.197 184.753C403.422 184.82 405.19 186.037 405.146 187.469Z" fill="#FAAAD8"/>
<path d="M443.789 183.878C443.789 183.878 435.468 178.689 427.99 184.24C427.99 184.24 434.462 174.502 443.789 183.878Z" fill="#4A4A4A"/>
<path d="M397.218 182.967C397.218 182.967 405.096 178.615 411.491 184.856C411.491 184.856 406.288 174.55 397.218 182.967Z" fill="#4A4A4A"/>
<path d="M411.125 204.887C411.125 204.887 424.91 204.475 437.712 201.794C437.712 201.794 429.345 212.978 420.597 212.919C411.85 212.86 411.125 204.887 411.125 204.887Z" fill="#4A4A4A"/>
<path d="M412.157 204.847C412.157 204.847 412.378 207.702 420.682 207.1C428.987 206.498 437.711 201.794 437.711 201.794C437.711 201.794 425.262 204.185 412.157 204.847Z" fill="#FEFEFC"/>
<path d="M434.211 205.722C434.211 205.722 419.61 205.846 417.027 212.361C417.027 212.361 419.648 213.535 423.414 212.641C427.181 211.747 430.733 209.079 434.211 205.722Z" fill="#FFBD39"/>
<path d="M424.09 169.114C424.09 169.114 423.602 162.837 424.804 162.612C426.006 162.388 435.652 162.074 442.141 163.49C448.63 164.906 452.118 173.623 452.118 173.623C452.118 173.623 444.48 169.824 436.235 169.224C427.99 168.624 424.09 169.114 424.09 169.114Z" fill="#FFBD39"/>
<path d="M413.447 161.221C413.447 161.221 413.915 167.846 413.24 167.999C412.565 168.153 398.656 167.902 397.858 168.399C397.06 168.896 396.308 169.917 396.308 169.917C396.308 169.917 395.807 165.815 396.496 163.747C397.186 161.681 405.254 160.971 413.447 161.221Z" fill="#FFBD39"/>
<path d="M410.651 193.353C410.651 193.353 411.674 194.037 414.186 194.374C416.698 194.712 424.193 194.223 424.193 194.223C424.193 194.223 417.84 200.531 413.487 199.006C413.487 199.006 411.103 197.063 410.651 193.353Z" fill="#FAAAD8"/>
<path d="M416.32 185.732C416.32 185.732 411.634 189.208 411.252 192.675C410.87 196.142 413.486 199.006 413.486 199.006C413.486 199.006 410.085 196.196 410.424 192.232C410.763 188.268 416.32 185.732 416.32 185.732Z" fill="#4A4A4A"/>
<path d="M388.325 124.439L389.841 130.384C389.841 130.384 393.756 119.243 400.706 114.093C407.656 108.943 416.807 107.793 416.807 107.793L416.455 119.311C416.455 119.311 422.314 114.753 436.365 114.11C450.416 113.467 455.727 115.148 455.727 115.148L442.748 130.301L442.745 130.303C462.699 130.426 472.316 141.754 472.572 143.011C472.883 144.54 472.306 145.863 472.306 145.863C472.306 145.863 477.211 149.141 477.708 153.356C478.205 157.572 474.18 181.669 474.18 181.669C474.18 181.669 466 182.61 462.55 190.25C462.55 190.25 466.777 174.739 464.69 169.939C462.602 165.139 459.64 162.633 459.64 162.633C459.64 162.633 463.898 154.9 463.663 153.82C463.428 152.74 419.789 153.552 419.789 153.552L422.063 152.249L416.561 153.901L413.313 151.982L414.645 153.708L399.023 154.097C399.023 154.097 392.231 151.638 388.267 140.971C384.303 130.304 388.325 124.439 388.325 124.439Z" fill="#FFBD39"/>
<path d="M465.838 243.769C465.838 243.769 462.853 255.253 438.874 260.061C438.874 260.061 428.402 259.324 427.255 252.139L412.655 257.545C412.655 257.545 411.402 271.912 437.392 269.578C463.381 267.244 480.541 251.621 480.541 251.621L465.838 243.769Z" fill="#FEFEFC"/>
<path d="M393.074 222.698C394.933 216.439 398.354 206.334 398.354 206.334C398.354 206.334 398.202 203.074 399.543 200.136C400.884 197.198 415.532 199.433 415.532 199.433C415.532 199.433 430.754 196.532 436.831 196.538C442.908 196.545 448.351 205.974 448.351 205.974C448.351 205.974 450.996 198.043 453.234 194.983C455.472 191.923 464.386 185.447 465.389 179.646L465.428 185.655C465.428 185.655 462.637 192.425 462.304 199.438C461.971 206.451 463.324 210.527 463.324 210.527C463.324 210.527 463.704 227.715 456.857 241.21C450.01 254.705 421.677 261.585 405.181 255.48C388.684 249.376 391.215 228.957 393.074 222.698ZM404.643 215.411C405.411 217.579 407.178 222.162 411.273 222.68C415.368 223.198 414.775 215.304 415.432 214.847C416.088 214.39 421.104 214.901 421.987 215.226C422.871 215.551 421.495 219.62 422.425 222.33C423.355 225.04 439.928 219.856 440.952 215.597C441.976 211.338 439.927 202.339 438.083 201.076C436.239 199.813 429.413 202.777 422.544 203.819C415.675 204.86 415.164 202.566 415.164 202.566C415.164 202.566 413.921 204.256 410.305 204.682C406.69 205.108 404.948 203.446 404.224 203.735C403.502 204.023 403.875 213.243 404.643 215.411Z" fill="#FFBD39"/>
<path d="M438.874 260.062L446.541 274.328C446.541 274.328 469.708 265.89 480.54 251.623C480.54 251.623 472.028 265.007 446.338 275.126L438.874 260.062Z" fill="#C5BAFF"/>
<path d="M438.874 260.062L427.174 273.468C427.174 273.468 413.608 269.003 412.647 258.01C412.647 258.01 411.602 268.3 427.463 274.236L438.874 260.062Z" fill="#C5BAFF"/>
<path d="M440.657 279.721C440.657 279.721 443.485 356.069 443.388 359.641C443.29 363.213 434.36 381.053 432.247 380.75C430.133 380.447 425.028 363.132 425.585 359.097C426.142 355.063 431.859 279.57 431.859 279.57L440.657 279.721Z" fill="#FFBD39"/>
<path d="M438.874 260.062L446.037 274.518C446.037 274.518 442.63 279.483 440.657 279.721C438.684 279.959 432.675 280.131 431.858 279.57C431.041 279.009 428.204 273.316 428.204 273.316L438.874 260.062Z" fill="#00C4CF"/>
<path d="M437.762 279.909L437.973 294.442L437.032 279.93L437.762 279.909Z" fill="#00C4CF"/>
<path d="M435.67 279.845L434.184 290.484L435.087 279.94L435.67 279.845Z" fill="#00C4CF"/>
<path d="M496.302 423.831L514.047 541.131H513.69L495.932 423.95L496.302 423.831Z" fill="#FFBD39"/>
<path d="M397.242 263.502C397.242 263.502 378.815 273.215 376.613 280.372C374.411 287.529 369.225 313.539 362.41 327.975C355.595 342.411 352.454 347.84 355.931 359.207C359.408 370.575 365.911 373.323 370.813 372.835C375.715 372.347 391.864 347.98 400.291 322.528L397.242 263.502Z" fill="#FEFEFC"/>
<path d="M372.371 372.228C372.371 372.228 368.921 374.517 361.188 372.632C353.455 370.747 322.492 340.975 321.991 338.835C321.49 336.695 322.088 335.651 322.088 335.651C322.088 335.651 313.206 327.306 313.882 326.051C314.558 324.797 327.126 305.208 328.524 305.817C329.922 306.426 332.331 308.696 332.331 308.696C332.331 308.696 338.255 309.514 339.006 310.458C339.756 311.402 358.298 328.116 365.178 339.375C372.058 350.634 372.371 372.228 372.371 372.228Z" fill="#FEFEFC"/>
<path d="M398.904 326.727L390.092 285.652L398.226 328.35L398.904 326.727Z" fill="#C5BAFF"/>
<path d="M360.236 332.563C360.236 332.563 368.769 340.051 370.416 351.08C370.416 351.08 369.677 339.488 360.236 332.563Z" fill="#C5BAFF"/>
<path d="M278.693 238.598C276.408 241.17 277.494 245.866 281.119 249.085C284.744 252.305 289.534 252.829 291.819 250.257C294.104 247.685 293.018 242.989 289.393 239.77C285.769 236.55 280.978 236.026 278.693 238.598Z" fill="white"/>
<path d="M276.602 236.739C273.589 240.132 275.021 246.324 279.801 250.57C284.582 254.816 290.9 255.508 293.913 252.116C296.926 248.723 295.494 242.531 290.714 238.285C285.933 234.039 279.615 233.347 276.602 236.739Z" stroke="white" stroke-width="1.1267" stroke-miterlimit="10"/>
<path d="M508.164 258.624C508.164 258.624 519.825 259.356 531.674 266.127C550.55 276.914 548.717 340.786 548.483 348.466C548.248 356.145 558.102 373.795 552.369 380.631C546.636 387.468 528.36 387.541 523.672 381.029C518.984 374.517 510.635 348.736 505.968 320.664C501.3 292.592 502.96 260.546 508.164 258.624Z" fill="#FEFEFC"/>
<path d="M555.251 356.617C555.251 356.617 546.868 349.521 528.965 354.817C528.965 354.817 545.365 348.154 555.251 356.617Z" fill="#C5BAFF"/>
<path d="M509.437 338.379C509.437 338.379 511.036 317.624 514.518 301.015C514.518 301.015 509.467 328.61 509.007 340.369L509.445 339.38L509.437 338.379Z" fill="#C5BAFF"/>
<path d="M531.915 371.003C531.915 371.003 536.243 353.551 538.574 351.788C540.905 350.025 545.899 353.909 545.899 353.909C545.899 353.909 548.427 352.236 550.199 352.206C551.971 352.176 553.218 354.154 553.218 354.154C553.218 354.154 555.704 352.838 557.752 353.449C559.8 354.06 560.356 355.173 560.356 355.173C560.356 355.173 562.399 354.561 564.2 354.953C566.001 355.345 567.651 357.926 568.2 359.292C568.749 360.658 574.044 372.985 573.436 374.232C572.829 375.478 569.841 375.957 568.52 375.726C567.199 375.496 566.471 374.462 566.471 374.462C566.471 374.462 566.748 375.735 564.136 376.351C561.524 376.967 559.772 374.257 559.772 374.257C559.772 374.257 560.532 376.304 558.301 376.869C556.07 377.433 552.653 373.977 552.653 373.977C552.653 373.977 553.449 376.248 551.979 376.756C550.509 377.264 549.044 377.599 546.361 376.379L526.721 379.511C526.721 379.511 521.763 378.221 520.816 378.192C519.868 378.163 515.088 379.345 514.487 378.315C513.886 377.285 512.897 374.471 517.074 372.322C521.251 370.172 527.609 371.189 528.924 371.609C530.239 372.029 531.915 371.003 531.915 371.003Z" fill="#FACEE7"/>
<path d="M552.654 373.977C552.654 373.977 549.389 366.32 548.772 363.92C548.155 361.52 546.244 355.091 545.9 353.91L546.115 353.773C546.115 353.773 548.937 363.722 549.492 365.261C550.047 366.801 552.654 373.977 552.654 373.977Z" fill="#4A4A4A"/>
<path d="M553.217 354.154C553.217 354.154 555.377 362.679 556.295 365.115C557.212 367.551 559.772 374.258 559.772 374.258C559.772 374.258 556.647 365.193 556.326 364.087C556.006 362.981 553.542 354 553.542 354L553.217 354.154Z" fill="#4A4A4A"/>
<path d="M560.356 355.173C560.356 355.173 563.33 365.542 564.079 367.69C564.828 369.838 566.648 373.766 566.471 374.462C566.471 374.462 566.782 373.815 565.769 371.34C564.756 368.866 562.705 362.097 562.228 360.741C561.751 359.385 560.693 355.086 560.693 355.086L560.356 355.173Z" fill="#4A4A4A"/>
<path d="M546.362 376.378C546.362 376.378 545.093 374.812 543.14 370.928C541.187 367.044 539.125 359.756 539.125 359.756C539.125 359.756 539.198 360.855 539.909 363.649C540.621 366.442 541.733 369.132 542.794 371.794C543.855 374.456 545.583 376.502 545.583 376.502L546.362 376.378Z" fill="#4A4A4A"/>
<path d="M649.126 356.845L497.798 382.572L497.145 380.547L648.411 354.522L649.126 356.845Z" fill="#FF8CB1"/>
<path d="M649.126 356.845L597.314 394.721L472.133 414.73L497.798 382.572L649.126 356.845Z" fill="#FFBD39"/>
<path d="M497.798 382.572L497.145 380.547L470.912 412.676L472.133 414.73L497.798 382.572Z" fill="#FF8CB1"/>
<path opacity="0.27" d="M277.322 489.086L251.077 354.167L6.9303 314.247L0.000244141 318.405L47.9603 440.564L272.147 494.261L277.322 489.086Z" fill="white"/>
<path opacity="0.58" d="M251.077 354.167L243.685 359.989L0.00012207 318.405L6.93018 314.247L251.077 354.167Z" fill="white"/>
<path opacity="0.58" d="M243.685 359.989L272.147 494.261L277.322 489.086L251.077 354.167L243.685 359.989Z" fill="white"/>
<path opacity="0.44" d="M229.53 430.995L217.52 370.944L33.5073 337.118L58.4213 393.388L229.53 430.995Z" fill="white"/>
<path d="M154.287 401.594L148.558 377.198L111.039 379.786L154.287 401.594Z" fill="#FEFEFC"/>
<path opacity="0.58" d="M233.667 451.265L231.588 443.225L89.508 409.957L93.389 416.888L233.667 451.265Z" fill="white"/>
<path opacity="0.58" d="M236.81 465.522L234.731 457.482L92.6506 424.214L96.5316 431.145L236.81 465.522Z" fill="white"/>
<path opacity="0.58" d="M317.73 293.99L298.435 194.863L302.127 193.781L319.398 293.364L317.73 293.99Z" fill="white"/>
<path opacity="0.58" d="M298.435 194.863L165.511 184.143L168.429 182.773L302.127 193.781L298.435 194.863Z" fill="white"/>
<path opacity="0.27" d="M298.435 194.863L165.511 184.143L191.715 276.094L317.73 293.99L298.435 194.863Z" fill="white"/>
<path opacity="0.58" d="M298.436 194.863L301.722 211.742L170.143 200.394L165.512 184.143L298.436 194.863Z" fill="white"/>
<path d="M177.379 190.592L178.661 195.232L229.888 199.871L228.994 194.809L177.379 190.592Z" fill="#FEFEFC"/>
<path d="M290.139 198.897L288.272 202.334L291.719 206.619L288.907 206.478L286.516 203.207L284.963 206.056L283.097 205.866L284.864 202.132L282.63 198.56L285.004 198.659L286.634 201.351L287.962 198.782L290.139 198.897Z" fill="#FEFEFC"/>
<path opacity="0.44" d="M297.502 220.136L304.49 256.172L262.206 250.607L254.369 215.82L297.502 220.136Z" fill="white"/>
<path opacity="0.44" d="M236.747 214.579L215.897 212.421L224.351 246.082L245.553 249.092L236.747 214.579Z" fill="white"/>
<path opacity="0.44" d="M203.401 211.075L182.551 208.918L191.005 242.578L212.206 245.589L203.401 211.075Z" fill="white"/>
<path opacity="0.58" d="M242.043 250.818L227.893 248.668L228.424 249.915L242.388 252.092L242.043 250.818Z" fill="white"/>
<path opacity="0.58" d="M208.965 246.836L194.815 244.686L195.346 245.933L209.31 248.11L208.965 246.836Z" fill="white"/>
<path opacity="0.58" d="M192.45 247.592L246.076 255.45L247.562 260.972L194.309 253.433L192.45 247.592Z" fill="white"/>
<path opacity="0.58" d="M195.223 257.986L262.032 268.461L262.245 269.574L195.506 259.363L195.223 257.986Z" fill="white"/>
<path opacity="0.58" d="M196.969 265.538L263.778 276.014L263.991 277.126L197.252 266.915L196.969 265.538Z" fill="white"/>
<path d="M573.328 335.451V313.026H612.975V340.778H578.904L569.921 345.424L573.328 335.451Z" fill="#FFBD39"/>
<path d="M596.031 318.539H608.854V319.979H596.031V318.539Z" fill="#DEA1F7"/>
<path d="M578.376 323.681H608.854V325.121H578.376V323.681Z" fill="#DEA1F7"/>
<path d="M578.376 327.785H608.854V329.225H578.376V327.785Z" fill="#DEA1F7"/>
<path d="M578.376 332.57H608.854V334.01H578.376V332.57Z" fill="#DEA1F7"/>
<path d="M300.503 176.052V153.627H340.149V181.38H306.078L297.096 186.026L300.503 176.052Z" fill="#FFBD39"/>
<path d="M323.207 159.141H336.03V160.581H323.207V159.141Z" fill="#DEA1F7"/>
<path d="M305.552 164.282H336.03V165.722H305.552V164.282Z" fill="#DEA1F7"/>
<path d="M305.552 168.386H336.03V169.826H305.552V168.386Z" fill="#DEA1F7"/>
<path d="M305.552 173.172H336.03V174.612H305.552V173.172Z" fill="#DEA1F7"/>
</svg>
